<svg width="447" height="448" viewBox="0 0 447 448" fill="none" xmlns="http://www.w3.org/2000/svg">
<g clip-path="url(#clip0_4_10)">
<rect x="43" y="57" width="362" height="379" fill="white"/>
<path d="M448.5 64C448.5 28.7 419.8 0 384.5 0H64.5C29.2 0 0.5 28.7 0.5 64V384C0.5 419.3 29.2 448 64.5 448H384.5C419.8 448 448.5 419.3 448.5 384V64ZM266.3 375.7C266.3 373.9 266.3 369.7 266.4 364.1C266.5 352.7 266.5 335.3 266.5 320.4C266.5 304.8 261.3 294.9 255.2 289.7C292.2 285.6 331.2 280.5 331.2 216.6C331.2 198.4 324.7 189.3 314.1 177.6C315.8 173.3 321.5 155.6 312.4 132.6C298.5 128.3 266.7 150.5 266.7 150.5C253.5 146.8 239.2 144.9 225.1 144.9C211 144.9 196.7 146.8 183.5 150.5C183.5 150.5 151.7 128.3 137.8 132.6C128.7 155.5 134.3 173.2 136.1 177.6C125.5 189.3 120.5 198.4 120.5 216.6C120.5 280.2 157.8 285.6 194.8 289.7C190 294 185.7 301.4 184.2 312C174.7 316.3 150.4 323.7 135.9 298.1C126.8 282.3 110.4 281 110.4 281C94.2 280.8 109.3 291.2 109.3 291.2C120.1 296.2 127.7 315.4 127.7 315.4C137.4 345.1 183.8 335.1 183.8 335.1C183.8 344.1 183.9 356.8 183.9 365.7C183.9 370.5 184 374.3 184 375.7C184 380 181 385.2 172.5 383.7C106.5 361.6 60.3 298.8 60.3 225.4C60.3 133.6 130.5 63.9 222.3 63.9C314.1 63.9 388.5 133.6 388.5 225.4C388.6 298.8 343.8 361.7 277.8 383.7C269.4 385.2 266.3 380 266.3 375.7Z" fill="black"/>
</g>
<defs>
<clipPath id="clip0_4_10">
<rect width="447" height="448" fill="white"/>
</clipPath>
</defs>
</svg>
