<svg width="564" height="644" viewBox="0 0 564 644" fill="none" xmlns="http://www.w3.org/2000/svg">
<g clip-path="url(#clip0_2028_58)">
<g clip-path="url(#clip1_2028_58)">
<path d="M559.242 315.749C562.176 310.665 564 304.936 564 299.791V121.208C564 116.063 562.179 110.335 559.243 105.251L377 210.5L559.242 315.749Z" fill="#00599C"/>
<path d="M393.194 417.14L547.805 327.849C552.259 325.277 556.307 320.835 559.242 315.749L377 210.5L194.758 315.751C197.693 320.835 201.742 325.278 206.194 327.849L360.805 417.14C369.712 422.285 384.288 422.285 393.194 417.14Z" fill="#004482"/>
<path d="M559.243 105.249C556.307 100.163 552.258 95.7217 547.806 93.1494L393.194 3.8585C384.288 -1.28617 369.712 -1.28617 360.806 3.8585L206.194 93.1494C197.287 98.2928 190 110.92 190 121.208V299.791C190 304.936 191.822 310.665 194.758 315.749L377 210.5L559.243 105.249Z" fill="#659AD2"/>
<path d="M377 335.204C308.259 335.204 252.333 279.262 252.333 210.5C252.333 141.738 308.259 85.7955 377 85.7955C421.357 85.7955 462.725 109.673 484.96 148.109L431.008 179.339C419.879 160.1 399.183 148.148 377 148.148C342.629 148.148 314.667 176.118 314.667 210.5C314.667 244.881 342.629 272.852 377 272.852C399.186 272.852 419.882 260.9 431.011 241.658L484.964 272.886C462.729 311.326 421.359 335.204 377 335.204Z" fill="white"/>
<path d="M501.667 203.572H487.814V189.716H473.964V203.572H460.111V217.427H473.964V231.284H487.814V217.427H501.667V203.572Z" fill="white"/>
<path d="M553.611 203.572H539.758V189.716H525.908V203.572H512.056V217.427H525.908V231.284H539.758V217.427H553.611V203.572Z" fill="white"/>
</g>
<g clip-path="url(#clip2_2028_58)">
<path fill-rule="evenodd" clip-rule="evenodd" d="M179.03 226.863C185.82 223.053 194.18 223.053 200.96 226.863C234.51 245.693 335.47 302.373 369.03 321.203C375.82 325.003 380 332.043 380 339.663C380 377.323 380 490.673 380 528.333C380 535.953 375.82 542.993 369.03 546.803C335.48 565.633 234.52 622.313 200.96 641.143C194.17 644.953 185.81 644.953 179.03 641.143C145.48 622.313 44.52 565.633 10.96 546.803C4.18 542.993 0 535.963 0 528.343C0 490.683 0 377.333 0 339.673C0 332.053 4.18 325.013 10.97 321.203C44.51 302.373 145.49 245.693 179.03 226.863Z" fill="#004482"/>
<path fill-rule="evenodd" clip-rule="evenodd" d="M3.04 538.043C0.38 534.483 0 531.103 0 526.553C0 489.113 0 376.413 0 338.963C0 331.383 4.17 324.383 10.94 320.603C44.37 301.883 144.99 245.533 178.42 226.803C185.19 223.013 194.36 223.093 201.13 226.883C234.56 245.603 334.84 301.473 368.27 320.193C370.97 321.713 373.03 323.543 374.87 325.953L3.04 538.043Z" fill="#659AD2"/>
<path fill-rule="evenodd" clip-rule="evenodd" d="M190 294.003C267.27 294.003 330 356.733 330 434.003C330 511.273 267.27 574.003 190 574.003C112.73 574.003 50 511.273 50 434.003C50 356.733 112.73 294.003 190 294.003ZM190 364.003C228.63 364.003 260 395.363 260 434.003C260 472.633 228.63 504.003 190 504.003C151.37 504.003 120 472.633 120 434.003C120 395.363 151.36 364.003 190 364.003Z" fill="white"/>
<path fill-rule="evenodd" clip-rule="evenodd" d="M374.85 326.053C380.01 330.883 379.91 338.163 379.91 343.893C379.91 381.843 379.59 489.783 380 527.733C380.04 531.693 378.73 535.863 376.77 539.003L185.93 434.003L374.85 326.053Z" fill="#00599C"/>
</g>
</g>
<defs>
<clipPath id="clip0_2028_58">
<rect width="564" height="644" fill="white"/>
</clipPath>
<clipPath id="clip1_2028_58">
<rect width="374" height="421" fill="white" transform="translate(190)"/>
</clipPath>
<clipPath id="clip2_2028_58">
<rect width="380.001" height="420" fill="white" transform="translate(0 224)"/>
</clipPath>
</defs>
</svg>
