<svg width="841" height="851" viewBox="0 0 841 851" fill="none" xmlns="http://www.w3.org/2000/svg">
<g clip-path="url(#clip0_2027_2)">
<path d="M 415.7 -0.5 C 381 -0.3 347.9 2.6 318.7 7.8 C 232.9 23 217.3 54.8 217.3 113.4 V 190.8 H 420.2 V 216.6 H 217.3 H 141.1 C 82.2 216.6 30.6 252 14.4 319.5 C -4.2 396.9 -5 445.2 14.4 525.9 C 28.8 586.1 63.3 628.9 122.2 628.9 H 192 V 536.1 C 192 469.1 249.9 409.9 318.7 409.9 H 521.4 C 577.8 409.9 622.8 363.5 622.8 306.8 V 113.4 C 622.8 58.3 576.4 17 521.4 7.8 C 486.5 2 450.4 -0.6 415.7 -0.5 Z M 306 61.8 C 326.9 61.8 344 79.2 344 100.6 C 344 121.9 326.9 139.2 306 139.2 C 284.9 139.2 267.9 121.9 267.9 100.6 C 267.9 79.2 284.9 61.8 306 61.8 Z" fill="url(#paint0_linear_2027_2)"/>
<path d="M 648.1 216.6 V 306.8 C 648.1 376.7 588.9 435.5 521.4 435.5 H 318.7 C 263.2 435.5 217.3 483.1 217.3 538.7 V 732.1 C 217.3 787.1 265.1 819.5 318.7 835.3 C 382.9 854.2 444.5 857.6 521.4 835.3 C 572.4 820.5 622.8 790.7 622.8 732.1 V 654.7 H 420.2 V 628.9 H 622.8 H 724.2 C 783.2 628.9 805.2 587.7 825.7 525.9 C 846.9 462.3 846 401.1 825.7 319.5 C 811.1 260.8 783.3 216.6 724.2 216.6 H 648.1 Z M 534.1 706.3 C 555.2 706.3 572.2 723.5 572.2 744.9 C 572.2 766.3 555.2 783.7 534.1 783.7 C 513.2 783.7 496.1 766.3 496.1 744.9 C 496.1 723.5 513.2 706.3 534.1 706.3 Z" fill="url(#paint1_linear_2027_2)"/>
</g>
<defs>
<linearGradient id="paint0_linear_2027_2" x1="0.124021" y1="-0.484133" x2="468.335" y2="398.097" gradientUnits="userSpaceOnUse">
<stop stop-color="#5a9fd4"/>
<stop offset="1" stop-color="#306998"/>
</linearGradient>
<linearGradient id="paint1_linear_2027_2" x1="529.26" y1="738.362" x2="361.202" y2="503.099" gradientUnits="userSpaceOnUse">
<stop stop-color="#ffd43b"/>
<stop offset="1" stop-color="#ffe873"/>
</linearGradient>
<clipPath id="clip0_2027_2">
<rect width="841" height="851" fill="white"/>
</clipPath>
</defs>
</svg>
