<svg width="2102" height="1273" viewBox="0 0 2102 1273" fill="none" xmlns="http://www.w3.org/2000/svg">
<g clip-path="url(#clip0_2028_41)">
<g clip-path="url(#clip1_2028_41)">
<path d="M796 73H0V869H796V73Z" fill="#F7DF1E"/>
<path d="M534.71 694.878C550.744 721.058 571.604 740.301 608.498 740.301C639.491 740.301 659.29 724.81 659.29 703.407C659.29 677.758 638.948 668.673 604.834 653.751L586.134 645.728C532.158 622.733 496.3 593.925 496.3 533.025C496.3 476.926 539.044 434.22 605.844 434.22C653.402 434.22 687.592 450.771 712.231 494.109L653.983 531.509C641.159 508.513 627.324 499.454 605.844 499.454C583.936 499.454 570.05 513.352 570.05 531.509C570.05 553.948 583.948 563.033 616.041 576.931L634.741 584.942C698.294 612.195 734.177 639.979 734.177 702.446C734.177 769.791 681.275 806.685 610.229 806.685C540.762 806.685 495.883 773.581 473.923 730.193L534.71 694.878ZM270.476 701.36C282.226 722.207 292.915 739.833 318.615 739.833C343.19 739.833 358.693 730.218 358.693 692.831V438.49H433.491V693.842C433.491 771.294 388.082 806.546 321.799 806.546C261.909 806.546 227.226 775.552 209.588 738.222L270.476 701.36Z" fill="black"/>
</g>
<g clip-path="url(#clip2_2028_41)">
<path d="M1310 3.80313H1975.28C2008.89 3.80313 2041.12 17.0898 2064.88 40.7403C2088.65 64.3908 2102 96.4678 2102 129.915V665.889C2102 699.335 2088.65 731.412 2064.88 755.063C2041.12 778.713 2008.89 792 1975.28 792H1436.72C1403.11 792 1370.88 778.713 1347.12 755.063C1323.35 731.412 1310 699.335 1310 665.889V3.80313Z" fill="#663399"/>
<path d="M1956.9 729.228C1931.19 729.228 1911.54 721.799 1897.78 706.872C1884.17 691.865 1877.08 670.456 1876.45 642.494H1931.84C1932.15 667.223 1940.9 679.619 1958.09 679.619C1966.85 679.619 1973.06 676.859 1976.63 671.402C1980.13 665.961 1981.97 657.263 1981.97 645.34C1981.97 635.862 1979.58 627.96 1974.96 621.723C1968.69 614.304 1960.65 608.571 1951.57 605.053L1931.04 595.251C1912.74 586.561 1899.44 576.294 1891.25 564.284C1883.29 552.353 1879.31 535.612 1879.31 514.21C1879.31 490.269 1886.32 470.839 1900.24 455.904C1914.56 440.976 1934.06 433.556 1958.96 433.556C1983.01 433.556 2001.62 440.897 2014.75 455.509C2028.12 470.208 2035.12 491.216 2035.68 518.705H1982.36C1982.68 509.715 1980.86 500.789 1977.03 492.635C1974.02 486.642 1968.12 483.637 1959.37 483.637C1943.77 483.637 1935.97 492.872 1935.97 511.277C1935.97 520.605 1937.88 527.868 1941.7 533.396C1947.21 539.512 1954.11 544.227 1961.83 547.148L1981.49 555.759C2001.78 565.001 2016.42 576.302 2025.42 589.967C2034.49 603.554 2038.95 621.723 2038.95 644.473C2038.95 671.726 2031.78 692.654 2017.22 707.266C2002.73 721.878 1982.6 729.228 1956.91 729.228H1956.9ZM1778.01 729.228C1752.3 729.228 1732.65 721.799 1718.88 706.872C1705.27 691.865 1698.19 670.456 1697.56 642.494H1752.94C1753.26 667.223 1762.01 679.619 1779.21 679.619C1787.95 679.619 1794.16 676.859 1797.66 671.402C1801.25 665.961 1802.99 657.263 1802.99 645.34C1802.99 635.862 1800.69 627.96 1796.07 621.723C1789.81 614.304 1781.76 608.571 1772.68 605.053L1752.15 595.251C1733.84 586.561 1720.56 576.294 1712.36 564.284C1704.4 552.353 1700.42 535.612 1700.42 514.21C1700.42 490.269 1707.42 470.839 1721.35 455.904C1735.67 440.976 1755.17 433.556 1780.07 433.556C1804.11 433.556 1822.73 440.897 1835.78 455.509C1849.31 470.208 1856.23 491.216 1856.79 518.705H1803.48C1803.79 509.715 1801.97 500.789 1798.14 492.635C1795.12 486.642 1789.23 483.637 1780.48 483.637C1764.88 483.637 1757.08 492.872 1757.08 511.277C1757.08 520.605 1758.99 527.868 1762.81 533.396C1768.32 539.512 1775.22 544.227 1782.94 547.148L1802.6 555.759C1822.89 565.001 1837.53 576.302 1846.53 589.967C1855.52 603.554 1860.05 621.723 1860.05 644.473C1860.05 671.726 1852.81 692.654 1838.33 707.266C1823.85 721.878 1803.71 729.228 1778.01 729.228ZM1591.72 729.228C1566.56 729.228 1546.6 722.43 1531.8 708.843C1517 695.343 1509.67 675.038 1509.67 648.179V515.472C1509.67 488.779 1517.47 468.552 1533.07 454.65C1548.91 440.905 1569.67 433.958 1595.38 433.958C1620.29 433.958 1639.94 441.063 1654.5 455.123C1669.23 469.262 1676.62 490.277 1676.62 518.318V528.822H1617.98V518.634C1617.98 507.815 1615.59 499.835 1610.97 494.622C1608.95 492.016 1606.35 489.92 1603.36 488.506C1600.37 487.092 1597.09 486.399 1593.78 486.484C1584.24 486.484 1577.47 489.717 1573.65 496.278C1569.58 505.354 1567.75 515.266 1568.32 525.187V640.522C1568.32 664.613 1576.84 676.859 1593.79 677.096C1601.74 677.096 1607.71 674.249 1611.85 668.563C1616.35 661.382 1618.49 652.988 1617.98 644.544V635.941H1676.62V644.946C1676.62 663.666 1672.97 679.304 1665.56 691.787C1658.52 703.969 1647.96 713.767 1635.25 719.907C1621.67 726.347 1606.76 729.539 1591.72 729.228Z" fill="white"/>
</g>
<g clip-path="url(#clip3_2028_41)">
<path d="M761.81 1168.29L688 228H1499.05L1425.16 1168.15L1093.03 1272.73L761.81 1168.29Z" fill="#E44D26"/>
<path d="M1095.17 1190.74L1361.87 1106.32L1424.62 303.777H1095.17V1190.74Z" fill="#F16529"/>
<path d="M1094.84 652.639H961.411L952.196 534.434H1094.84V419H1094.49H842L844.414 449.969L869.196 768.071H1094.84V652.639Z" fill="#EBEBEB"/>
<path d="M1094.84 951.415L1094.4 951.55L982.119 916.617L974.942 823.972H920.385H873.741L887.865 1006.36L1094.37 1072.42L1094.84 1072.27V951.415Z" fill="#EBEBEB"/>
<path d="M1095.17 652.848V768.251H1219.25L1207.55 917.922L1095.17 952.663V1072.73L1301.74 1007.16L1303.26 987.66L1326.94 683.837L1329.4 652.848H1302.24H1095.17Z" fill="white"/>
<path d="M1095.17 419.306V491.059V534.552V534.835H1337.59H1337.91L1339.93 508.867L1344.51 450.3L1346.91 419.306H1095.17Z" fill="white"/>
</g>
</g>
<defs>
<clipPath id="clip0_2028_41">
<rect width="2102" height="1273" fill="white"/>
</clipPath>
<clipPath id="clip1_2028_41">
<rect width="796" height="796" fill="white" transform="translate(0 73)"/>
</clipPath>
<clipPath id="clip2_2028_41">
<rect width="792" height="792" fill="white" transform="translate(1310)"/>
</clipPath>
<clipPath id="clip3_2028_41">
<rect width="811" height="1045" fill="white" transform="translate(688 228)"/>
</clipPath>
</defs>
</svg>
